<svg width="20" height="17" viewBox="0 0 20 17" fill="none" xmlns="http://www.w3.org/2000/svg">
<path fill-rule="evenodd" clip-rule="evenodd" d="M4.4165 4.08333C4.4165 2.6566 5.5731 1.5 6.99984 1.5C8.42657 1.5 9.58317 2.6566 9.58317 4.08333C9.58317 5.51007 8.42657 6.66667 6.99984 6.66667C5.5731 6.66667 4.4165 5.51007 4.4165 4.08333ZM6.99984 0C4.74467 0 2.9165 1.82817 2.9165 4.08333C2.9165 6.3385 4.74467 8.16667 6.99984 8.16667C9.255 8.16667 11.0832 6.3385 11.0832 4.08333C11.0832 1.82817 9.255 0 6.99984 0ZM4.08333 10C3.00037 10 1.96175 10.4302 1.19598 11.196C0.430207 11.9618 0 13.0004 0 14.0833V15.75C0 16.1642 0.335786 16.5 0.75 16.5C1.16421 16.5 1.5 16.1642 1.5 15.75V14.0833C1.5 13.3982 1.77217 12.7411 2.25664 12.2566C2.74111 11.7722 3.39819 11.5 4.08333 11.5H9.91667C10.6018 11.5 11.2589 11.7722 11.7434 12.2566C12.2278 12.7411 12.5 13.3982 12.5 14.0833V15.75C12.5 16.1642 12.8358 16.5 13.25 16.5C13.6642 16.5 14 16.1642 14 15.75V14.0833C14 13.0004 13.5698 11.9618 12.804 11.196C12.0382 10.4302 10.9996 10 9.91667 10H4.08333ZM16.583 4.16669C16.9972 4.16669 17.333 4.50247 17.333 4.91669V6.66669H19.083C19.4972 6.66669 19.833 7.00247 19.833 7.41669C19.833 7.8309 19.4972 8.16669 19.083 8.16669H17.333V9.91669C17.333 10.3309 16.9972 10.6667 16.583 10.6667C16.1688 10.6667 15.833 10.3309 15.833 9.91669V8.16669H14.083C13.6688 8.16669 13.333 7.8309 13.333 7.41669C13.333 7.00247 13.6688 6.66669 14.083 6.66669H15.833V4.91669C15.833 4.50247 16.1688 4.16669 16.583 4.16669Z" fill="black"/>
</svg>
