<svg xmlns="http://www.w3.org/2000/svg" xmlns:xlink="http://www.w3.org/1999/xlink" version="1.1" x="0px" y="0px" style="enable-background:new 0 0 1000 1000;" xml:space="preserve" viewBox="242.6 567.6 514.7 118.8">
<style type="text/css">
	.st0{fill:#B41F66;}
	.st1{fill:#DF5738;}
	.st2{fill:#FFB714;}
	.st3{fill:#78307D;}
</style>
<g id="Capa_1">
	<g>
		<g>
			<path d="M467,643.1c0,23.2-17.5,42.1-39.2,42.1c-16,0-25.9-8.3-31.1-15.1v12.6h-14.9V567.6h14.9v48.4     c5.3-6.8,15.1-14.9,31.1-14.9c10.5,0,20.3,4.4,27.7,12.3C462.9,621.4,467,632,467,643.1z M452.9,643.3c0-17.2-12.5-30.9-28-30.9     c-15.7,0-28.2,13.8-28.2,30.9c0,17,12.5,30.8,28.2,30.8C440.4,674.1,452.9,660.3,452.9,643.3z"/>
			<path d="M496.1,567.6v16.2h-14.6v-16.2H496.1z M496.1,603.8v79.1h-14.6v-79.1H496.1z"/>
			<path d="M637.4,633.9c0,0.2,0,48.9,0,48.9h-14.3c0,0,0-39.2,0-39.7c0-11.3-0.8-21.1-7.9-26.4c-7.1-5.3-24.6-4.1-31.1,12     c-1.6,3.9-2.1,8.4-2.1,14.1v40h-13.9c0,0,0-39.5,0-40c0-7.6,0-14.3-2.4-19.6c-1.3-2.6-2.9-4.7-5.2-6.5     c-8.9-6.6-33.5-2.9-33.5,26.1v40h-14.6v-79.1h14.6V619c1.6-6.2,10-17.5,24-17.5c18.1,0,25.4,13.8,27.4,20.1     c1.9-6.3,11.5-20.1,27.4-20.1C627.7,601.5,637.4,617.5,637.4,633.9z"/>
			<path d="M729.8,643.5c0,23.2-18.1,42.1-40.3,42.1c-22.2,0-39-19-39-42.1s16.9-42,39-42C711.6,601.5,729.8,620.3,729.8,643.5z      M715.8,643.5c0-15.7-11.8-28.5-26.4-28.5c-14.4,0-26.2,12.8-26.2,28.5S675,672,689.4,672C704,672,715.8,659.2,715.8,643.5z"/>
			<path d="M757.3,567.6v16.2h-14.6v-16.2H757.3z M757.3,603.8v79.1h-14.6v-79.1H757.3z"/>
		</g>
		<g>
			<path class="st0" d="M340.3,623.4c-0.1,0.9-0.3,1.8-0.4,2.8c-1.2,6.8-3.9,13.4-7.3,19.5c-0.4-2.4-0.9-4.8-1.5-7.2     c-1-3.6-2.3-7.1-3.8-10.5c-1.2-2.7-2.6-5.2-4.1-7.7c-10.1-16.6-26.9-28.7-46.6-32.6c-4.5-0.9-9.1-1.4-13.9-1.4     c-0.7,0-1.5,0-2.2,0c-2.3,0.1-4.6,0.2-6.8,0.5c6.9-8.5,16.6-14.6,27.7-17c3.3-0.7,6.7-1.1,10.3-1.1c8,0,15.6,1.9,22.2,5.3     c0,1.9,0.1,3.7,0.3,5.5c1.4,13.9,7.5,26.4,16.8,35.9c1.5,1.6,3.2,3.1,4.9,4.5C337.3,621.2,338.8,622.3,340.3,623.4z"/>
			<path class="st1" d="M305,677.7c-3.7,3.2-7,5.7-9.2,7.3c-1.3,0.9-2.7,1.4-4.2,1.4c-1.5,0-2.9-0.5-4.2-1.4     c-4.3-3.2-12.7-9.8-21.1-18.6c-2-2.1-4-4.4-5.9-6.7c0.7-1.5,1.3-3,1.8-4.5c0.1-0.2,0.1-0.3,0.2-0.5c1.4-4,2.5-8.1,3.2-12.4     c0.4-2.8,0.7-5.6,0.8-8.4c0-1,0.1-1.9,0.1-2.9c0-14.1-4.2-27.3-11.3-38.4c-0.9-1.4-1.9-2.8-2.9-4.1c0.4-0.6,0.9-1.1,1.3-1.7     c6.9-8.5,16.6-14.6,27.7-17c-0.7,1.7-1.3,3.5-1.8,5.3c-1.3,4.1-2.3,8.2-3,12.5c-1,5.8-1.6,11.8-1.6,17.9c0,9.7,1.4,19.1,3.9,28     c1.4,5,3.2,9.9,5.4,14.5c0.7,1.4,1.4,2.8,2.1,4.2c2.3,4.4,4.9,8.7,7.8,12.7c2.4,3.3,4.9,6.4,7.6,9.4     C302.8,675.4,303.9,676.5,305,677.7z"/>
			<path id="XMLID_5_" class="st2" d="M340.6,616c-1.6,0.6-3.1,1.2-4.7,1.8c-0.6,0.2-1.2,0.5-1.8,0.8c-3.2,1.4-6.3,2.9-9.3,4.6     c-13.4,7.6-24.7,18.1-33.3,30.4c-0.8,1.2-1.7,2.4-2.5,3.7c-0.8,1.2-1.5,2.4-2.2,3.6c-2.4,4.1-4.4,8.3-6.2,12.7     c-0.6,1.5-1.2,3.1-1.8,4.7c-5.2-4.4-11.5-10.4-17.4-17.4c1.5-0.6,3-1.2,4.5-1.9c2.1-0.9,4.1-1.9,6.1-2.9c3.2-1.7,6.4-3.5,9.4-5.4     c1-0.6,2-1.3,3-2c13.8-9.5,25.1-21.8,33.3-35.9c1.6-2.7,3.1-5.5,4.5-8.4c2-4.1,3.7-8.3,5.1-12.6c0.6-1.8,1.2-3.6,1.7-5.5     C336,594.4,340.2,604.7,340.6,616z"/>
			<path class="st3" d="M335.7,639.3c-0.9,2.1-2,4.2-3.2,6.3c-5.5,9.7-12.9,18.3-19.9,25.1c-0.9-1.3-1.9-2.6-2.9-3.8     c-6.6-8-15.2-14.3-25.1-18.1c-0.3-0.1-0.7-0.3-1-0.4c-5.8-2.1-12-3.4-18.5-3.6c-0.7,0-1.4,0-2.1,0c-2.4,0-4.7,0.1-7.1,0.4     c-1.7,0.2-3.3,0.5-4.9,0.8c-2.7-4.7-5-9.7-6.4-14.9c-1.2-4.4-2-8.9-2-13.4c0-4.5,0.6-8.9,1.8-13c1,2.2,2.2,4.3,3.5,6.4     c4.8,7.9,11.2,14.8,18.7,20.2c1.2,0.9,2.5,1.7,3.7,2.6c3.3,2.1,6.8,4,10.5,5.5c3.4,1.4,6.9,2.6,10.6,3.5c5.4,1.3,11.1,2,16.9,2     c7.4,0,14.5-1.1,21.1-3.2c0.8-0.2,1.5-0.5,2.2-0.7C333,640.4,334.4,639.9,335.7,639.3z"/>
		</g>
	</g>
</g>
<g id="Capa_2">
</g>
<g id="Capa_3">
</g>
</svg>