<svg width="21" height="18" viewBox="0 0 21 18" fill="none" xmlns="http://www.w3.org/2000/svg">
<path d="M15.1627 16.9331V15.1627C15.1627 14.2237 14.7897 13.3231 14.1257 12.6591C13.4617 11.9951 12.5611 11.622 11.622 11.622H4.54068C3.60163 11.622 2.70105 11.9951 2.03704 12.6591C1.37303 13.3231 1 14.2237 1 15.1627V16.9331" stroke="#484848" stroke-linecap="round" stroke-linejoin="round"/>
<path d="M8.08133 8.08136C10.0368 8.08136 11.622 6.49614 11.622 4.54068C11.622 2.58522 10.0368 1 8.08133 1C6.12587 1 4.54065 2.58522 4.54065 4.54068C4.54065 6.49614 6.12587 8.08136 8.08133 8.08136Z" stroke="#484848" stroke-linecap="round" stroke-linejoin="round"/>
<path d="M20.4736 16.9331V15.1628C20.473 14.3783 20.2119 13.6162 19.7312 12.9962C19.2506 12.3761 18.5776 11.9333 17.8181 11.7372" stroke="#484848" stroke-linecap="round" stroke-linejoin="round"/>
<path d="M14.2774 1.11499C15.039 1.30999 15.7141 1.75293 16.1961 2.37398C16.6782 2.99502 16.9399 3.75884 16.9399 4.54502C16.9399 5.3312 16.6782 6.09503 16.1961 6.71607C15.7141 7.33711 15.039 7.78005 14.2774 7.97505" stroke="#484848" stroke-linecap="round" stroke-linejoin="round"/>
</svg>
