<svg width="19" height="19" viewBox="0 0 19 19" fill="none" xmlns="http://www.w3.org/2000/svg">
<path fill-rule="evenodd" clip-rule="evenodd" d="M16.0208 1.62576C15.0445 0.649447 13.4616 0.649446 12.4853 1.62576L0.894342 13.2167C0.425502 13.6856 0.162109 14.3214 0.162109 14.9845V18.3379V18.8379H0.662111L4.01551 18.8379C4.67856 18.8379 5.31444 18.5745 5.78328 18.1057L17.3742 6.5147C18.3505 5.53839 18.3505 3.95547 17.3742 2.97916L16.0208 1.62576ZM13.1924 2.33286C13.7782 1.74708 14.7279 1.74708 15.3137 2.33286L16.6671 3.68627C17.2529 4.27206 17.2529 5.2218 16.6671 5.80759L15.2986 7.17616L11.8238 3.70144L13.1924 2.33286ZM11.1167 4.40854L1.60145 13.9238C1.32015 14.2051 1.16211 14.5867 1.16211 14.9845L1.16211 17.8379L4.01552 17.8379C4.41334 17.8379 4.79487 17.6799 5.07618 17.3986L14.5915 7.88327L11.1167 4.40854Z" fill="#767676"/>
</svg>
