<svg width="17" height="17" viewBox="0 0 17 17" fill="none" xmlns="http://www.w3.org/2000/svg">
<path fill-rule="evenodd" clip-rule="evenodd" d="M1 7.58137C1 3.94658 3.94658 1 7.58137 1C11.2162 1 14.1627 3.94658 14.1627 7.58137C14.1627 11.2162 11.2162 14.1627 7.58137 14.1627C3.94658 14.1627 1 11.2162 1 7.58137ZM7.58137 0C3.39429 0 0 3.39429 0 7.58137C0 11.7684 3.39429 15.1627 7.58137 15.1627C9.50052 15.1627 11.2531 14.4496 12.5887 13.274C12.6095 13.309 12.635 13.3421 12.6652 13.3723L16.0794 16.7865C16.2747 16.9818 16.5913 16.9818 16.7865 16.7865C16.9818 16.5913 16.9818 16.2747 16.7865 16.0794L13.3723 12.6652C13.3421 12.635 13.309 12.6095 13.274 12.5887C14.4496 11.2531 15.1627 9.50052 15.1627 7.58137C15.1627 3.39429 11.7684 0 7.58137 0Z" fill="#484848"/>
</svg>
