<svg width="17" height="16" viewBox="0 0 17 16" fill="none" xmlns="http://www.w3.org/2000/svg">
<path fill-rule="evenodd" clip-rule="evenodd" d="M15.9151 0.22412C15.916 0.225015 15.9169 0.225909 15.9177 0.226809C16.0808 0.394232 16.1498 0.618325 16.1257 0.833745C16.1187 0.896948 16.1036 0.959404 16.0805 1.01946L10.9655 15.2491C10.8624 15.5361 10.5957 15.7321 10.2909 15.7447C9.98618 15.7574 9.70412 15.5843 9.57747 15.3068L6.77114 9.15876L0.452137 6.42422C0.167649 6.3011 -0.011788 6.01566 0.000603279 5.70592C0.0129946 5.39619 0.21466 5.12599 0.508074 5.02599L15.1228 0.0454657C15.1826 0.0236158 15.2447 0.00965489 15.3073 0.00356174C15.3523 -0.000845023 15.3974 -0.00113956 15.4421 0.00255013C15.6151 0.0167522 15.784 0.0907604 15.9151 0.22412ZM12.4745 2.53269L2.83079 5.81915L7.17044 7.69712L12.4745 2.53269ZM8.23524 8.75394L13.5754 3.55435L10.1771 13.0082L8.23524 8.75394Z" fill="#B41E65"/>
</svg>
