<svg xmlns="http://www.w3.org/2000/svg" xmlns:xlink="http://www.w3.org/1999/xlink" version="1.1" x="0px" y="0px" style="enable-background:new 0 0 1000 1000;" xml:space="preserve" viewBox="344.7 313.5 310.5 372.9">
<style type="text/css">
	.st0{fill:#B41F66;}
	.st1{fill:#DF5738;}
	.st2{fill:#FFB714;}
	.st3{fill:#78307D;}
</style>
<g id="Capa_1">
	<g>
		<g>
			<path class="st0" d="M654.1,486.8c-0.4,2.9-0.8,5.8-1.3,8.7c-3.9,21.6-12.4,42.4-23.3,61.7c-1.2-7.7-2.9-15.3-4.9-22.8     c-3.1-11.5-7.1-22.6-12-33.3c-3.8-8.4-8.1-16.5-12.8-24.4c-32.1-52.6-85.2-91-147.6-103.4c-14.2-2.8-28.9-4.3-43.9-4.3     c-2.3,0-4.6,0-6.9,0.1c-7.3,0.2-14.5,0.8-21.7,1.7c21.9-26.9,52.7-46.3,87.8-53.9c10.5-2.2,21.4-3.4,32.5-3.4     c25.4,0,49.3,6.1,70.5,16.9c0.1,5.9,0.4,11.8,1,17.6c4.5,44.1,23.9,83.7,53.1,113.8c4.9,5,10.1,9.8,15.5,14.3     C644.6,480,649.3,483.5,654.1,486.8z"/>
			<path class="st1" d="M542.4,658.8c-11.9,10.2-22.1,18.1-29.1,23.2c-4,2.9-8.6,4.4-13.3,4.4c-4.6,0-9.3-1.5-13.3-4.4     c-13.7-10.1-40.3-30.9-66.7-59c-6.3-6.7-12.6-13.8-18.8-21.3c2.1-4.7,4-9.5,5.8-14.3c0.2-0.5,0.4-1,0.5-1.5     c4.5-12.6,7.9-25.7,10-39.2c1.4-8.8,2.3-17.7,2.7-26.7c0.1-3,0.2-6.1,0.2-9.2c0-44.8-13.2-86.6-35.8-121.6     c-2.9-4.4-5.9-8.8-9.1-13c1.3-1.8,2.7-3.6,4.1-5.3c21.9-26.9,52.7-46.3,87.8-53.9c-2.1,5.5-4,11.1-5.8,16.8     c-4,12.9-7.2,26.1-9.6,39.5c-3.2,18.4-4.9,37.3-4.9,56.6c0,30.8,4.3,60.6,12.4,88.8c4.5,15.9,10.3,31.3,17.1,46.1     c2.1,4.5,4.3,9,6.6,13.4c7.3,14,15.5,27.4,24.7,40.1c7.5,10.4,15.5,20.3,24.1,29.6C535.4,651.7,538.9,655.3,542.4,658.8z"/>
			<path id="XMLID_2_" class="st2" d="M655.2,463.4c-5,1.8-9.9,3.7-14.8,5.7c-1.9,0.8-3.8,1.6-5.7,2.4c-10.1,4.4-19.9,9.3-29.4,14.7     c-42.6,24.1-78.3,57.2-105.4,96.2c-2.7,3.8-5.3,7.7-7.8,11.7c-2.4,3.8-4.7,7.6-7,11.5c-7.5,12.9-14,26.4-19.7,40.2     c-2,4.9-3.9,9.8-5.6,14.8c-16.6-14.1-36.6-32.8-55.2-55c4.9-1.9,9.7-3.9,14.4-6c6.6-2.9,13-6,19.4-9.2     c10.3-5.3,20.2-11,29.9-17.2c3.2-2,6.3-4.1,9.4-6.3c43.6-30,79.4-69.1,105.6-113.8c5.1-8.7,9.8-17.6,14.2-26.7     c6.2-13,11.6-26.3,16.2-39.9c1.9-5.7,3.7-11.5,5.4-17.3C640.5,394.9,653.9,427.7,655.2,463.4z"/>
			<path class="st3" d="M639.5,537.4c-3,6.8-6.4,13.4-10,19.8c-17.3,30.7-40.9,57.9-63.1,79.5c-2.9-4.1-5.9-8.1-9-11.9     c-20.9-25.4-48.2-45.3-79.5-57.3c-1.1-0.4-2.1-0.8-3.2-1.2c-18.4-6.7-38.1-10.6-58.7-11.3c-2.2-0.1-4.4-0.1-6.6-0.1     c-7.6,0-15,0.4-22.4,1.3c-5.3,0.6-10.5,1.5-15.7,2.5c-8.6-15-15.7-30.8-20.4-47.3c-3.9-13.8-6.2-28.1-6.2-42.6     c0-14.2,1.9-28.1,5.5-41.2c3.3,6.9,7,13.6,11,20.1c15.4,25.1,35.5,46.9,59.1,64.1c3.9,2.8,7.8,5.5,11.9,8.1     c10.5,6.7,21.6,12.5,33.2,17.4c10.8,4.5,21.9,8.3,33.5,11.1c17.1,4.2,35.1,6.4,53.5,6.4c23.3,0,45.8-3.6,67-10.2     c2.4-0.8,4.8-1.5,7.1-2.4C631,540.9,635.3,539.2,639.5,537.4z"/>
		</g>
	</g>
</g>
<g id="Capa_2">
</g>
<g id="Capa_3">
</g>
</svg>